<svg xmlns="http://www.w3.org/2000/svg" version="1.1" xmlns:xlink="http://www.w3.org/1999/xlink" id="Layer_1" x="0px" y="0px" viewBox="0 0 30.2 30.2" style="enable-background:new 0 0 30.2 30.2;" xml:space="preserve" width="30.2" height="30.2"><metadata><rdf:RDF xmlns:rdf="http://www.w3.org/1999/02/22-rdf-syntax-ns#" xmlns:dc="http://purl.org/dc/elements/1.1/"><rdf:Description><dc:creator>RealFaviconGenerator</dc:creator><dc:source>https://realfavicongenerator.net</dc:source></rdf:Description></rdf:RDF></metadata><style type="text/css">
	.st0{fill:#0090C9;}
	.st1{fill:#FFFFFF;}
	.st2{fill:#FED6A7;}
</style><circle class="st0" cx="15.1" cy="15.1" r="15"></circle><g>
	<g>
		<path class="st1" d="M10.4,17.1C10,18.8,8.7,20,6.5,20c-2.9,0-4.4-2.2-4.4-5c0-2.6,1.5-5,4.4-5c2.3,0,3.5,1.3,3.8,2.9H9.1
			c-0.3-1.1-1.1-1.9-2.6-1.9c-2.1,0-3,2-3,3.9c0,1.9,0.8,3.9,3.1,3.9c1.5,0,2.2-0.9,2.5-1.8H10.4z"></path>
		<path class="st2" d="M13.6,17l-1,2.9h-1.3l3.5-9.7h1.6l3.6,9.7h-1.4L17.5,17H13.6z M17.2,15.9c-0.9-2.6-1.4-3.9-1.7-4.7h0
			c-0.2,0.8-0.8,2.5-1.6,4.7H17.2z"></path>
		<path class="st1" d="M23.5,11.3h-3.1v-1.1H28v1.1h-3.2v8.6h-1.3V11.3z"></path>
	</g>
</g></svg>