<svg xmlns="http://www.w3.org/2000/svg" viewBox="0 0 300 300">
<style type="text/css">
	.st0{fill:#0092B8;}
	.st1{fill:#FFFFFF;}
</style>
<ellipse class="st0" cx="154.7" cy="150.2" rx="138" ry="135.9"/>
<path class="st1" d="M160.6,204.2l-25.8-59v-28.7h10.1c2.7,0,4.7-2.1,4.7-4.7c0-2.7-2.1-4.7-4.7-4.7H130h-29.4H85.8
	c-2.7,0-4.7,2.1-4.7,4.7c0,2.7,2.1,4.7,4.7,4.7h10.1v28.7l-14.2,32.6L70.2,204c-0.2,0.6-0.4,1.3-0.4,1.9
	c-0.2,12.5,8.9,22.8,20.1,22.8h50.7c11.2,0,20.3-10.1,20.3-22.6C161,205.6,160.8,204.8,160.6,204.2z M140.8,219H90
	c-5.7,0-10.4-5.5-10.8-12.1l9.9-22.4h52.8l9.9,22.4C151.3,213.7,146.5,219,140.8,219z M105,148.1c0.2-0.6,0.4-1.3,0.4-1.9v-29.6
	h19.9v29.8c0,0.6,0.2,1.3,0.4,1.9l12,26.8H93.2L105,148.1z"/>
<path class="st1" d="M225.1,69.3h-46.7c-2.7,0-4.7,2.3-4.7,4.7c0,2.7,2.1,4.7,4.7,4.7h3.2v127.5c0,12.3,9.1,22.4,20.1,22.4
	s20.1-10.1,20.1-22.2V78.8h3.2c2.7,0,4.7-2.1,4.7-4.7C229.8,71.6,227.8,69.3,225.1,69.3z M201.8,219c-5.9,0-10.6-5.7-10.6-12.7
	v-42.1h9.9c2.7,0,4.7-2.1,4.7-4.7s-2.1-4.7-4.7-4.7h-9.9V143h9.9c2.7,0,4.7-2.1,4.7-4.7s-2.1-4.7-4.7-4.7h-9.9v-11.8h9.9
	c2.7,0,4.7-2.1,4.7-4.7c0-2.7-2.1-4.7-4.7-4.7h-9.9v-11.8h9.9c2.7,0,4.7-2.1,4.7-4.7c0-2.7-2.1-4.7-4.7-4.7h-9.9V78.8h21.3v127.5
	C212.4,213.3,207.6,219,201.8,219z"/>
</svg>
